<svg xmlns="http://www.w3.org/2000/svg" width="51" height="51" viewBox="0 0 298 51" fill="none">
  <g clip-path="url(#clip0_1570_8653)">
    <path d="M134.691 38.2392H0L28.3575 0.223633H163.071L134.713 38.2392M61.1925 9.98155L51.9017 22.3022C51.9017 22.3022 50.2301 24.5437 51.0062 26.7852C51.417 27.783 52.1005 28.6447 52.9784 29.2711C53.8562 29.8976 54.8926 30.2634 55.9688 30.3267L60.3567 30.5434C60.3567 30.5434 60.7149 30.5434 61.2522 30.5434C63.1047 30.5937 64.9508 30.305 66.6998 29.6917C68.5494 28.7983 70.2229 27.5783 71.64 26.0903C71.9385 25.7541 83.9606 9.93672 83.9606 9.93672H74.5429L65.3193 22.6908C64.9703 23.15 64.5182 23.5205 63.9996 23.7723C63.481 24.0241 62.9105 24.1502 62.3343 24.1403C61.3268 24.1403 60.0507 22.9672 61.4462 21.4056C61.9985 20.7631 70.1475 9.98155 70.1475 9.98155H61.1925ZM49.76 10.0787H49.5809L36.5662 10.131L21.8651 29.9756H30.0739L33.641 25.5449H42.0736C47.9316 25.5449 50.2823 21.9287 50.2823 21.9287L53.133 18.0584C53.133 18.0584 55.1031 15.3686 54.0658 12.5817C53.2002 10.258 50.5286 10.0862 49.7674 10.0862M87.1918 9.98903L72.2669 29.9457H80.4756L88.0575 20.397L88.4903 25.0742L97.117 20.6809L90.1022 29.871H98.7438L113.669 9.92178H103.818L95.1469 15.1145L94.5872 9.98155H87.1844M113.848 25.8662H119.691L116.706 29.8261H125.288C125.288 29.8261 133.131 19.9038 133.735 19.0147C134.344 18.0533 134.681 16.9448 134.711 15.807C134.742 14.6691 134.464 13.5443 133.907 12.5518C132.415 10.0264 129.071 9.92925 128.571 9.92925H117.161L102.326 29.8261H110.788L113.848 25.8662ZM124.81 19.6498H118.519L121.027 16.2502H125.266C125.475 16.2203 125.689 16.2653 125.869 16.3773C126.049 16.4893 126.184 16.6612 126.251 16.8629C126.332 17.1403 126.299 17.4386 126.161 17.6923L124.81 19.6498ZM41.79 19.463H38.999L41.7303 15.8244H44.0288C44.372 15.8244 45.3198 15.8841 45.5213 16.5117C45.7974 17.4606 44.7004 18.671 44.2004 18.9699C43.4695 19.3343 42.658 19.5066 41.8422 19.4705" fill="#007142"></path>
    <mask id="mask0_1570_8653" style="mask-type:luminance" maskUnits="userSpaceOnUse" x="0" y="0" width="164" height="39">
      <path d="M134.691 38.2392H0L28.3575 0.223633H163.071L134.713 38.2392M61.1925 9.98155L51.9017 22.3022C51.9017 22.3022 50.2301 24.5437 51.0062 26.7852C51.417 27.783 52.1005 28.6447 52.9784 29.2711C53.8562 29.8976 54.8926 30.2634 55.9688 30.3267L60.3567 30.5434C60.3567 30.5434 60.7149 30.5434 61.2522 30.5434C63.1047 30.5937 64.9508 30.305 66.6998 29.6917C68.5494 28.7983 70.2229 27.5783 71.64 26.0903C71.9385 25.7541 83.9606 9.93672 83.9606 9.93672H74.5429L65.3193 22.6908C64.9703 23.15 64.5182 23.5205 63.9996 23.7723C63.481 24.0241 62.9105 24.1502 62.3343 24.1403C61.3268 24.1403 60.0507 22.9672 61.4462 21.4056C61.9985 20.7631 70.1475 9.98155 70.1475 9.98155H61.1925ZM49.76 10.0787H49.5809L36.5662 10.131L21.8651 29.9756H30.0739L33.641 25.5449H42.0736C47.9316 25.5449 50.2823 21.9287 50.2823 21.9287L53.133 18.0584C53.133 18.0584 55.1031 15.3686 54.0658 12.5817C53.2002 10.258 50.5286 10.0862 49.7674 10.0862M87.1918 9.98903L72.2669 29.9457H80.4756L88.0575 20.397L88.4903 25.0742L97.117 20.6809L90.1022 29.871H98.7438L113.669 9.92178H103.818L95.1469 15.1145L94.5872 9.98155H87.1844M113.848 25.8662H119.691L116.706 29.8261H125.288C125.288 29.8261 133.131 19.9038 133.735 19.0147C134.344 18.0533 134.681 16.9448 134.711 15.807C134.742 14.6691 134.464 13.5443 133.907 12.5518C132.415 10.0264 129.071 9.92925 128.571 9.92925H117.161L102.326 29.8261H110.788L113.848 25.8662ZM124.81 19.6498H118.519L121.027 16.2502H125.266C125.475 16.2203 125.689 16.2653 125.869 16.3773C126.049 16.4893 126.184 16.6612 126.251 16.8629C126.332 17.1403 126.299 17.4386 126.161 17.6923L124.81 19.6498ZM41.79 19.463H38.999L41.7303 15.8244H44.0288C44.372 15.8244 45.3198 15.8841 45.5213 16.5117C45.7974 17.4606 44.7004 18.671 44.2004 18.9699C43.4695 19.3343 42.658 19.5066 41.8422 19.4705" fill="white"></path>
    </mask>
    <g mask="url(#mask0_1570_8653)">
      <path d="M163.302 0.223633H0V38.2392H163.302V0.223633Z" fill="#00764A"></path>
    </g>
    <path d="M21.8649 29.9756L36.566 10.131L49.5955 10.0862H49.7746C50.5209 10.0862 53.2074 10.258 54.073 12.5817C55.1103 15.3686 53.1402 18.0584 53.1402 18.0584L50.2746 21.8913C50.2746 21.8913 47.9314 25.5076 42.0659 25.5076H33.6332L30.0662 29.9607H21.8574M41.7301 15.8244L38.9988 19.463H41.7898C42.6055 19.4991 43.417 19.3269 44.1479 18.9625C44.6479 18.6636 45.7449 17.4681 45.4688 16.5043C45.2822 15.8767 44.3345 15.8169 43.9763 15.8169H41.7301" fill="white"></path>
    <path d="M61.252 30.5659C60.7147 30.5659 60.3565 30.5659 60.3565 30.5659L55.9686 30.3268C54.8891 30.2609 53.8503 29.8906 52.9722 29.2586C52.094 28.6266 51.4124 27.7588 51.006 26.7554C50.2598 24.5139 51.9015 22.2724 51.9015 22.2724L61.1923 9.98907H70.1473C70.1473 9.98907 61.9983 20.7631 61.4237 21.4132C60.0282 22.9673 61.3043 24.1328 62.3117 24.1328C62.888 24.1427 63.4585 24.0167 63.977 23.7649C64.4956 23.5131 64.9477 23.1426 65.2967 22.6833L74.5427 9.93677H83.9604C83.9604 9.93677 71.9383 25.7542 71.6398 26.0904C70.2179 27.5886 68.5366 28.8163 66.6773 29.7141C64.9292 30.3311 63.0824 30.6199 61.2296 30.5659" fill="white"></path>
    <path d="M80.4528 29.9382H72.2217L87.184 9.98897H94.5868L95.1465 15.1145L103.825 9.9292H113.676L98.7733 29.8784H90.1317L97.1464 20.6883L88.5198 25.0891L88.087 20.4044L80.4528 29.9382Z" fill="white"></path>
    <path d="M125.266 29.8259H116.684L119.669 25.866H113.826L110.766 29.8259H102.326L117.162 9.93652H128.527C129.027 9.93652 132.37 10.0337 133.863 12.5591C134.419 13.5515 134.697 14.6764 134.667 15.8142C134.637 16.9521 134.3 18.0605 133.691 19.022C133.087 19.9111 125.244 29.8334 125.244 29.8334M121.005 16.2351L118.52 19.6496H124.811L126.161 17.6995C126.299 17.4431 126.332 17.1426 126.251 16.8627C126.185 16.661 126.05 16.4891 125.87 16.3771C125.69 16.2651 125.476 16.2201 125.266 16.25H121.027" fill="white"></path>
    <path d="M269.612 38.2392H134.69L163.07 0.223633H298L269.642 38.2392M214.644 21.6447C217.459 21.7699 220.234 22.3659 222.852 23.408C227.33 24.992 232.554 26.2995 232.554 26.2995C242.15 27.7042 253.449 31.9929 255.687 32.6429C256.741 32.9846 257.835 33.1856 258.941 33.2407C259.807 33.2407 260.434 33.0016 260.523 32.3665C260.71 31.059 258.657 31.059 257.359 31.059C256.094 30.9177 254.856 30.5982 253.68 30.1101C253.68 30.1101 247.613 26.4714 245.568 25.0742C243.524 23.677 243.053 22.4591 244.635 22.1827C244.938 22.1261 245.245 22.0985 245.553 22.1005C246.777 22.1005 247.926 22.4741 249.195 22.5488C250.792 22.6459 251.538 22.4591 252.747 23.3931C253.021 23.6408 253.371 23.7883 253.74 23.8115C253.888 23.8064 254.034 23.7658 254.164 23.693C254.293 23.6202 254.404 23.5174 254.486 23.3931C255.465 22.7528 256.341 21.9667 257.083 21.0619C257.74 20.0383 257.18 19.5676 257.18 19.5676C257.18 19.5676 256.807 18.6337 255.784 16.0261C254.889 13.7099 252.001 13.2989 251.105 13.2989H250.852C250.81 13.3059 250.767 13.3059 250.725 13.2989C250.62 13.2885 250.519 13.2573 250.427 13.2073C250.335 13.1573 250.253 13.0894 250.188 13.0076L249.262 11.7972C249.262 11.7972 246.494 14.0386 244.464 14.0386C244.354 14.0461 244.245 14.0461 244.135 14.0386C240.509 13.5455 240.322 11.5207 230.352 10.3028C228.576 10.1025 226.789 10.0077 225.002 10.0189C215.696 10.0189 204.898 12.1408 203.047 12.4547C202.496 12.5357 201.94 12.5731 201.383 12.5667C199.937 12.5412 198.496 12.4088 197.069 12.1707C191.87 11.5383 186.636 11.2339 181.398 11.2592C175.501 11.2576 169.607 11.5644 163.742 12.1782C163.742 12.1782 160.667 12.5518 160.854 13.4857C161.041 14.4197 163.555 14.4197 163.555 14.4197H164.1C165.428 14.4197 173.055 13.4036 178.749 13.4036H178.921C184.629 13.4036 191.316 13.949 191.316 13.949H191.376C193.352 14.0349 195.32 14.242 197.271 14.5691C197.701 14.6334 198.114 14.7861 198.482 15.0175C198.851 15.249 199.168 15.5542 199.413 15.914C199.689 16.3474 199.562 16.8554 199.04 17.5951C197.723 18.9139 196.273 20.0909 194.711 21.1068C193.647 21.6828 192.44 21.942 191.234 21.8539C190.644 21.8539 190.055 21.8539 189.465 21.8091H189.301C188.82 21.7845 188.339 21.877 187.901 22.0786C187.463 22.2803 187.081 22.5852 186.786 22.9672C185.05 24.7071 183.084 26.2004 180.943 27.4053C180.192 27.7992 179.471 28.2488 178.786 28.7502C177.682 29.3234 176.474 29.6689 175.234 29.7664C174.1 29.8635 174.01 30.3566 174.01 30.3566L173.167 31.7762C172.689 32.5234 173.555 32.5682 173.555 32.5682C174.423 32.7228 175.301 32.8077 176.182 32.8223C179.167 32.8223 180.659 31.5073 184.54 29.1836C187.823 27.2036 189.764 26.7777 191.644 26.7777C192.614 26.7777 193.592 26.8898 194.771 26.9645C195.517 27.0093 196.264 27.0392 197.01 27.0392C198.825 27.1137 200.633 26.7686 202.293 26.0306C205.045 24.6175 207.878 23.37 210.778 22.2948C211.998 21.8552 213.287 21.6376 214.584 21.6522" fill="#ED1C24"></path>
    <path d="M258.889 33.2406C257.783 33.1855 256.689 32.9845 255.635 32.6428C253.396 31.9928 242.12 27.7041 232.501 26.2994C232.501 26.2994 227.278 24.9919 222.8 23.4079C220.18 22.3693 217.406 21.7734 214.591 21.6446C213.295 21.63 212.006 21.8476 210.785 22.2872C207.887 23.3656 205.054 24.613 202.301 26.023C200.638 26.7647 198.828 27.1124 197.01 27.0391C196.263 27.0391 195.517 27.0391 194.771 26.9569C193.592 26.8822 192.614 26.7702 191.644 26.7702C189.734 26.7702 187.823 27.196 184.54 29.176C180.674 31.4997 179.189 32.8147 176.182 32.8147C175.301 32.8039 174.422 32.7189 173.555 32.5607C173.555 32.5607 172.689 32.5158 173.167 31.7687L174.01 30.3491C174.01 30.3491 174.1 29.8559 175.234 29.7663C176.474 29.6632 177.681 29.3153 178.786 28.7427C179.471 28.2412 180.192 27.7917 180.943 27.3978C183.084 26.1928 185.05 24.6995 186.786 22.9596C187.081 22.5776 187.463 22.2728 187.901 22.0711C188.339 21.8694 188.819 21.7769 189.301 21.8015H189.465C190.055 21.8015 190.644 21.8464 191.234 21.8464C192.44 21.9345 193.647 21.6752 194.711 21.0992C196.274 20.0857 197.725 18.9085 199.039 17.5876C199.562 16.8404 199.689 16.3398 199.413 15.9064C199.164 15.5536 198.846 15.256 198.477 15.0323C198.109 14.8086 197.698 14.6636 197.271 14.6064C195.321 14.2732 193.352 14.0636 191.375 13.9788H191.316C191.316 13.9788 184.6 13.4483 178.921 13.4333H178.749C173.048 13.4333 165.428 14.4271 164.1 14.4495H163.555C163.555 14.4495 161.04 14.4495 160.854 13.5155C160.667 12.5816 163.742 12.1781 163.742 12.1781C169.615 11.566 175.516 11.2617 181.421 11.2666C186.658 11.2414 191.892 11.5459 197.092 12.1781C198.518 12.4162 199.96 12.5486 201.405 12.5741C201.959 12.5808 202.513 12.5433 203.062 12.462C204.92 12.1482 215.748 10.0263 225.024 10.0263C226.811 10.015 228.598 10.1099 230.375 10.3102C240.344 11.5281 240.531 13.5529 244.158 14.046C244.267 14.0534 244.377 14.0534 244.486 14.046C246.516 14.046 249.284 11.8045 249.284 11.8045L250.21 13.0149C250.276 13.0967 250.357 13.1646 250.449 13.2147C250.541 13.2647 250.643 13.2958 250.747 13.3063H250.874C250.958 13.2943 251.044 13.2943 251.128 13.3063C252.023 13.3063 254.911 13.7247 255.807 16.0335C256.829 18.641 257.202 19.575 257.202 19.575C257.202 19.575 257.762 20.0457 257.105 21.0693C256.364 21.9682 255.491 22.7491 254.516 23.3855C254.434 23.5098 254.323 23.6126 254.193 23.6854C254.063 23.7582 253.918 23.7988 253.769 23.8039C253.401 23.7807 253.051 23.6333 252.777 23.3855C251.568 22.4516 250.822 22.6384 249.225 22.5412C247.956 22.474 246.807 22.0929 245.583 22.0929C245.275 22.091 244.968 22.1185 244.665 22.1751C243.083 22.4516 243.546 23.6694 245.598 25.0666C247.65 26.4638 253.68 30.11 253.68 30.11C254.84 30.5883 256.06 30.9026 257.307 31.0439C258.605 31.0439 260.657 31.0439 260.471 32.3514C260.389 32.9865 259.725 33.2256 258.889 33.2256" fill="white"></path>
    <path d="M29.8048 50.0369H26.3049C26.1258 50.0369 26.0811 50.0369 26.0811 49.8128V42.9688C26.0811 42.7745 26.1258 42.7446 26.3049 42.7446H29.7899C30.0063 42.7446 30.066 42.7446 30.066 42.8642L30.0213 43.0136L29.8198 43.7234C29.8161 43.75 29.8072 43.7756 29.7935 43.7988C29.7799 43.8219 29.7617 43.842 29.7402 43.8581C29.7186 43.8741 29.6941 43.8856 29.6681 43.892C29.642 43.8984 29.6149 43.8995 29.5884 43.8953H27.5213V45.6511H29.3198C29.5213 45.6511 29.5511 45.6511 29.5511 45.8752V46.5477C29.5511 46.7419 29.5063 46.7718 29.3198 46.7718H27.5213V48.8564H29.7601C29.9616 48.8564 29.9914 48.8564 29.9914 49.0806V49.7829C29.9914 49.9771 29.9914 50.007 29.775 50.007" fill="currentColor"></path>
    <path d="M48.693 50.0369H47.9915C47.8423 50.0369 47.805 50.0369 47.7453 49.8875L45.805 46.2563C45.5352 45.8073 45.3316 45.3216 45.2006 44.8143C45.2006 44.9488 45.2006 45.4942 45.2006 45.9798V49.8128C45.2006 50.007 45.2006 50.0369 44.9841 50.0369H44.2379C44.0513 50.0369 44.0215 50.0369 44.0215 49.8128V42.9688C44.0215 42.7745 44.0215 42.7446 44.2379 42.7446H45.111C45.2677 42.7446 45.2976 42.7446 45.3573 42.8791L47.111 46.1816C47.3692 46.6748 47.5767 47.193 47.7303 47.7282C47.7303 47.392 47.7303 46.6448 47.7303 46.3459V42.9688C47.7303 42.7745 47.7751 42.7446 47.9468 42.7446H48.693C48.8796 42.7446 48.9243 42.7446 48.9243 42.9688V49.8128C48.9243 50.007 48.9243 50.0369 48.693 50.0369Z" fill="currentColor"></path>
    <path d="M67.0431 50.0369H63.5507C63.3641 50.0369 63.3193 50.0369 63.3193 49.8128V42.9688C63.3193 42.7745 63.3641 42.7446 63.5507 42.7446H67.0431C67.2446 42.7446 67.3043 42.7446 67.3043 42.8642V43.0136L67.1028 43.7234C67.0903 43.779 67.057 43.8277 67.0099 43.8596C66.9628 43.8915 66.9053 43.9043 66.8491 43.8953H64.7596V45.6511H66.5581C66.7596 45.6511 66.7894 45.6511 66.7894 45.8752V46.5477C66.7894 46.7419 66.7446 46.7718 66.5581 46.7718H64.7596V48.8564H67.0431C67.2297 48.8564 67.2595 48.8564 67.2595 49.0806V49.7829C67.2595 49.9771 67.2595 50.007 67.0431 50.007" fill="currentColor"></path>
    <path d="M84.8113 50.2237C84.7516 50.2237 84.6696 50.0892 84.5651 49.8875L83.1248 47.0259H82.6099V49.8128C82.6099 50.007 82.6099 50.0369 82.3935 50.0369H81.401C81.2293 50.0369 81.1846 50.0369 81.1846 49.8128V42.9688C81.1846 42.7745 81.2293 42.7446 81.401 42.7446H83.1248C83.9457 42.7446 85.6024 42.8044 85.6024 44.7993C85.6353 45.2139 85.5359 45.6282 85.3187 45.9827C85.1015 46.3371 84.7775 46.6134 84.3934 46.7718L85.9755 49.611L86.0725 49.8128L85.8486 49.9473L84.9531 50.1938H84.8113M82.5726 43.8355V45.8752H82.8487C83.5502 45.8752 84.1397 45.7706 84.1397 44.7919C84.1397 43.8131 83.5203 43.8355 82.9756 43.8355H82.5726Z" fill="currentColor"></path>
    <path d="M102.341 50.2237C100.46 50.2237 99.4824 49.0058 99.4824 46.4281C99.4824 43.8504 100.46 42.5728 102.355 42.5728C103.318 42.5728 104.341 43.036 104.341 43.2153L104.273 43.3722L103.938 44.1194L103.811 44.224C103.396 43.9552 102.922 43.7935 102.43 43.7533C101.348 43.7533 101.005 44.7619 101.005 46.3907C101.005 48.0196 101.266 49.1029 102.43 49.1029C102.688 49.103 102.942 49.0469 103.176 48.9386V47.3546H102.385C102.214 47.3546 102.169 47.3546 102.169 47.1379V46.4281C102.169 46.2413 102.214 46.204 102.385 46.204H104.251C104.415 46.204 104.467 46.2413 104.467 46.4281V49.4167C104.467 49.865 103.206 50.2536 102.341 50.2536" fill="currentColor"></path>
    <path d="M121.042 50.0371H120.072C119.878 50.0371 119.833 50.0371 119.833 49.8129V47.0484L117.833 43.1707L117.773 42.9465L117.99 42.827L119.057 42.6626H119.169L119.318 42.8046L120.191 44.6276C120.363 45.0013 120.502 45.3887 120.609 45.7857C120.728 45.3566 120.886 44.939 121.079 44.538L121.87 42.8793C121.96 42.6626 121.99 42.6626 122.042 42.6626H122.206L123.109 42.8569L123.296 42.9914L123.221 43.1632L121.243 47.041V49.8055C121.243 49.9997 121.199 50.0296 121.012 50.0296" fill="currentColor"></path>
  </g>
  <defs>
    <clipPath id="clip0_1570_8653">
      <rect width="298" height="50" fill="white" transform="translate(0 0.223633)"></rect>
    </clipPath>
  </defs>
</svg>